<?xml version="1.0" encoding="UTF-8"?> <!-- Generator: Adobe Illustrator 24.0.1, SVG Export Plug-In . SVG Version: 6.00 Build 0) --> <svg xmlns="http://www.w3.org/2000/svg" xmlns:xlink="http://www.w3.org/1999/xlink" version="1.1" id="Capa_1" x="0px" y="0px" width="444.755px" height="449.057px" viewBox="0 0 444.755 449.057" xml:space="preserve"> <g> <rect x="39.094" y="35.109" fill="#FFD406" stroke="#253575" stroke-width="2" stroke-miterlimit="10" width="352.285" height="229.867"></rect> </g> <path fill="#FFD406" stroke="#253575" stroke-width="2" stroke-miterlimit="10" d="M39.123,258.474 c0.975,83.125,79.451,150.223,176.099,150.223c96.681,0,175.157-67.098,176.132-150.223"></path> <path fill="#273270" d="M221.797,356.59c-69.966,0-126.672-57.946-126.672-129.421S151.831,97.748,221.797,97.748 c48.836,0,91.204,28.245,112.28,69.589h34.121c-22.693-60.964-80.315-104.248-147.856-104.248 c-87.377,0-158.259,72.553-158.259,162.032c0,89.479,70.882,161.978,158.259,161.978c63.767,0,118.694-38.541,143.759-94.168 h-33.204C308.85,331.04,268.261,356.59,221.797,356.59z"></path> <g> <path fill="#273270" d="M143.498,139.687h42.494l76.993,119.11v-119.11h37.767v170.814h-40.52l-78.967-121.196v121.196h-37.767 V139.687z"></path> </g> <path fill="#E44315" d="M316.795,220.793H121.141c-2.236,0-4.049-1.813-4.049-4.049v-35.549c0-2.236,1.813-4.049,4.049-4.049 h195.654V220.793z"></path> <path fill="#E44315" d="M127.455,236.964h195.654c2.236,0,4.049,1.813,4.049,4.049v35.549c0,2.236-1.813,4.049-4.049,4.049H127.455 V236.964z"></path> </svg> 